<svg width="24" height="24" fill="none" viewBox="0 0 24 24" stroke="currentColor" xmlns="http://www.w3.org/2000/svg">
  <!-- 왼쪽 카드 (15도 회전) -->
  <g transform="rotate(-15 8 12)">
    <rect x="5" y="7" width="6" height="10" rx="1" ry="1" stroke-width="1.5" fill="none" />
    <line x1="6" y1="9" x2="10" y2="9" stroke-width="1" />
    <line x1="6" y1="11" x2="10" y2="11" stroke-width="1" />
    <circle cx="8" cy="13.5" r="1" stroke-width="1" fill="currentColor" />
  </g>
  
  <!-- 중앙 카드 (똑바로) -->
  <g>
    <rect x="9" y="5" width="6" height="10" rx="1" ry="1" stroke-width="1.5" fill="none" />
    <line x1="10" y1="7" x2="14" y2="7" stroke-width="1" />
    <line x1="10" y1="9" x2="14" y2="9" stroke-width="1" />
    <circle cx="12" cy="11.5" r="1" stroke-width="1" fill="currentColor" />
  </g>
  
  <!-- 오른쪽 카드 (-15도 회전) -->
  <g transform="rotate(15 16 12)">
    <rect x="13" y="7" width="6" height="10" rx="1" ry="1" stroke-width="1.5" fill="none" />
    <line x1="14" y1="9" x2="18" y2="9" stroke-width="1" />
    <line x1="14" y1="11" x2="18" y2="11" stroke-width="1" />
    <circle cx="16" cy="13.5" r="1" stroke-width="1" fill="currentColor" />
  </g>
  
  <!-- 신비로운 반짝임 효과 -->
  <g opacity="0.6">
    <circle cx="6" cy="5" r="0.5" fill="currentColor" />
    <circle cx="18" cy="6" r="0.5" fill="currentColor" />
    <circle cx="12" cy="19" r="0.5" fill="currentColor" />
  </g>
</svg>