<svg width="300" height="450" viewBox="0 0 300 450" fill="none" xmlns="http://www.w3.org/2000/svg">
  <!-- Card Background -->
  <rect width="300" height="450" rx="16" fill="url(#cardGradient)" />
  
  <!-- Outer Border -->
  <rect x="8" y="8" width="284" height="434" rx="12" fill="none" stroke="url(#borderGradient)" stroke-width="2" />
  
  <!-- Inner Frame -->
  <rect x="20" y="20" width="260" height="410" rx="8" fill="none" stroke="#d4af37" stroke-width="1" opacity="0.8" />
  
  <!-- Central Sacred Geometry -->
  <g transform="translate(150, 225)">
    <!-- Outer Circle -->
    <circle r="80" fill="none" stroke="url(#mysticalGradient)" stroke-width="2" opacity="0.7" />
    
    <!-- Star Pattern -->
    <g transform="rotate(0)">
      <path d="M0,-60 L12,-12 L60,0 L12,12 L0,60 L-12,12 L-60,0 L-12,-12 Z" 
            fill="none" stroke="#d4af37" stroke-width="1.5" opacity="0.9" />
    </g>
    
    <!-- Inner Sacred Geometry -->
    <g>
      <!-- Triangle pointing up -->
      <path d="M0,-25 L21.65,12.5 L-21.65,12.5 Z" 
            fill="none" stroke="#d4af37" stroke-width="1" opacity="0.6" />
      <!-- Triangle pointing down -->
      <path d="M0,25 L-21.65,-12.5 L21.65,-12.5 Z" 
            fill="none" stroke="#d4af37" stroke-width="1" opacity="0.6" />
    </g>
    
    <!-- Central Circle -->
    <circle r="15" fill="none" stroke="#f4d03f" stroke-width="2" opacity="0.8" />
    <circle r="8" fill="#d4af37" opacity="0.4" />
  </g>
  
  <!-- Corner Decorations -->
  <g opacity="0.6">
    <!-- Top Left -->
    <g transform="translate(40, 40)">
      <circle r="3" fill="#d4af37" />
      <circle r="1.5" fill="#f4d03f" />
    </g>
    
    <!-- Top Right -->
    <g transform="translate(260, 40)">
      <circle r="3" fill="#d4af37" />
      <circle r="1.5" fill="#f4d03f" />
    </g>
    
    <!-- Bottom Left -->
    <g transform="translate(40, 410)">
      <circle r="3" fill="#d4af37" />
      <circle r="1.5" fill="#f4d03f" />
    </g>
    
    <!-- Bottom Right -->
    <g transform="translate(260, 410)">
      <circle r="3" fill="#d4af37" />
      <circle r="1.5" fill="#f4d03f" />
    </g>
  </g>
  
  <!-- Mystical Pattern Overlay -->
  <g opacity="0.2">
    <pattern id="mysticalPattern" x="0" y="0" width="40" height="40" patternUnits="userSpaceOnUse">
      <circle cx="20" cy="20" r="1" fill="#d4af37" />
      <circle cx="0" cy="0" r="0.5" fill="#f4d03f" />
      <circle cx="40" cy="40" r="0.5" fill="#f4d03f" />
    </pattern>
    <rect x="0" y="0" width="300" height="450" fill="url(#mysticalPattern)" />
  </g>
  
  <!-- Gradients -->
  <defs>
    <linearGradient id="cardGradient" x1="0%" y1="0%" x2="100%" y2="100%">
      <stop offset="0%" style="stop-color:#1a1f3a;stop-opacity:1" />
      <stop offset="50%" style="stop-color:#4a1a4f;stop-opacity:1" />
      <stop offset="100%" style="stop-color:#1a1f3a;stop-opacity:1" />
    </linearGradient>
    
    <linearGradient id="borderGradient" x1="0%" y1="0%" x2="100%" y2="100%">
      <stop offset="0%" style="stop-color:#d4af37;stop-opacity:0.8" />
      <stop offset="50%" style="stop-color:#f4d03f;stop-opacity:1" />
      <stop offset="100%" style="stop-color:#d4af37;stop-opacity:0.8" />
    </linearGradient>
    
    <radialGradient id="mysticalGradient" cx="50%" cy="50%" r="50%">
      <stop offset="0%" style="stop-color:#f4d03f;stop-opacity:0.8" />
      <stop offset="100%" style="stop-color:#d4af37;stop-opacity:0.4" />
    </radialGradient>
  </defs>
</svg>