<svg width="400" height="400" viewBox="0 0 400 400" fill="none" xmlns="http://www.w3.org/2000/svg">
  <!-- Repeatable Sacred Geometry Pattern -->
  
  <!-- Flower of Life Pattern -->
  <g opacity="0.15">
    <g transform="translate(200, 200)">
      <!-- Central Circle -->
      <circle r="30" fill="none" stroke="#d4af37" stroke-width="1" />
      
      <!-- Six surrounding circles -->
      <circle cx="0" cy="-52" r="30" fill="none" stroke="#d4af37" stroke-width="1" />
      <circle cx="45" cy="-26" r="30" fill="none" stroke="#d4af37" stroke-width="1" />
      <circle cx="45" cy="26" r="30" fill="none" stroke="#d4af37" stroke-width="1" />
      <circle cx="0" cy="52" r="30" fill="none" stroke="#d4af37" stroke-width="1" />
      <circle cx="-45" cy="26" r="30" fill="none" stroke="#d4af37" stroke-width="1" />
      <circle cx="-45" cy="-26" r="30" fill="none" stroke="#d4af37" stroke-width="1" />
      
      <!-- Outer layer -->
      <circle cx="0" cy="-104" r="30" fill="none" stroke="#d4af37" stroke-width="0.5" opacity="0.5" />
      <circle cx="90" cy="-52" r="30" fill="none" stroke="#d4af37" stroke-width="0.5" opacity="0.5" />
      <circle cx="90" cy="52" r="30" fill="none" stroke="#d4af37" stroke-width="0.5" opacity="0.5" />
      <circle cx="0" cy="104" r="30" fill="none" stroke="#d4af37" stroke-width="0.5" opacity="0.5" />
      <circle cx="-90" cy="52" r="30" fill="none" stroke="#d4af37" stroke-width="0.5" opacity="0.5" />
      <circle cx="-90" cy="-52" r="30" fill="none" stroke="#d4af37" stroke-width="0.5" opacity="0.5" />
    </g>
  </g>
  
  <!-- Metatron's Cube Elements -->
  <g opacity="0.1" transform="translate(200, 200)">
    <!-- Outer hexagon -->
    <path d="M0,-100 L86.6,-50 L86.6,50 L0,100 L-86.6,50 L-86.6,-50 Z" 
          fill="none" stroke="#f4d03f" stroke-width="1" />
    
    <!-- Inner star -->
    <path d="M0,-80 L69.3,-40 L69.3,40 L0,80 L-69.3,40 L-69.3,-40 Z" 
          fill="none" stroke="#d4af37" stroke-width="0.8" />
    
    <!-- Central hexagon -->
    <path d="M0,-40 L34.6,-20 L34.6,20 L0,40 L-34.6,20 L-34.6,-20 Z" 
          fill="none" stroke="#f4d03f" stroke-width="1.2" />
  </g>
  
  <!-- Scattered mystical elements -->
  <g opacity="0.08">
    <!-- Stars -->
    <g transform="translate(80, 80)">
      <path d="M0,-8 L2.4,-2.4 L8,0 L2.4,2.4 L0,8 L-2.4,2.4 L-8,0 L-2.4,-2.4 Z" 
            fill="#d4af37" />
    </g>
    
    <g transform="translate(320, 120)">
      <path d="M0,-6 L1.8,-1.8 L6,0 L1.8,1.8 L0,6 L-1.8,1.8 L-6,0 L-1.8,-1.8 Z" 
            fill="#f4d03f" />
    </g>
    
    <g transform="translate(120, 320)">
      <path d="M0,-10 L3,-3 L10,0 L3,3 L0,10 L-3,3 L-10,0 L-3,-3 Z" 
            fill="#d4af37" />
    </g>
    
    <g transform="translate(300, 300)">
      <path d="M0,-5 L1.5,-1.5 L5,0 L1.5,1.5 L0,5 L-1.5,1.5 L-5,0 L-1.5,-1.5 Z" 
            fill="#f4d03f" />
    </g>
    
    <!-- Small circles -->
    <circle cx="60" cy="150" r="2" fill="#d4af37" />
    <circle cx="350" cy="250" r="1.5" fill="#f4d03f" />
    <circle cx="150" cy="370" r="2.5" fill="#d4af37" />
    <circle cx="280" cy="60" r="1" fill="#f4d03f" />
  </g>
  
  <!-- Subtle connecting lines -->
  <g opacity="0.05">
    <line x1="0" y1="200" x2="400" y2="200" stroke="#d4af37" stroke-width="0.5" />
    <line x1="200" y1="0" x2="200" y2="400" stroke="#d4af37" stroke-width="0.5" />
    
    <!-- Diagonal lines -->
    <line x1="0" y1="0" x2="400" y2="400" stroke="#f4d03f" stroke-width="0.3" />
    <line x1="400" y1="0" x2="0" y2="400" stroke="#f4d03f" stroke-width="0.3" />
  </g>
</svg>