<?xml version="1.0" standalone="no"?>
<!DOCTYPE svg PUBLIC "-//W3C//DTD SVG 20010904//EN"
 "http://www.w3.org/TR/2001/REC-SVG-20010904/DTD/svg10.dtd">
<svg version="1.0" xmlns="http://www.w3.org/2000/svg"
 width="512.000000pt" height="512.000000pt" viewBox="0 0 512.000000 512.000000"
 preserveAspectRatio="xMidYMid meet">

<g transform="translate(0.000000,512.000000) scale(0.100000,-0.100000)"
fill="#000000" stroke="none">
<path d="M2668 4890 c-139 -48 -234 -143 -279 -278 -24 -72 -31 -82 -68 -82
-34 0 -819 -168 -841 -180 -51 -27 -37 -112 22 -133 14 -5 476 88 758 152 24
5 46 9 47 8 3 -3 -433 -1337 -439 -1342 -1 -1 -57 58 -123 132 -66 74 -130
139 -142 144 -30 11 -68 -3 -87 -33 -8 -13 -44 -115 -81 -228 l-66 -206 -207
-43 c-241 -50 -269 -60 -278 -95 -11 -44 3 -68 102 -176 53 -58 121 -133 151
-167 l55 -62 -72 -225 c-71 -219 -72 -226 -56 -251 30 -46 50 -46 240 -6 97
20 176 35 176 33 0 -3 -16 -55 -36 -116 -46 -139 -54 -238 -29 -332 31 -115
115 -219 220 -272 22 -11 303 -106 625 -212 322 -106 581 -194 575 -196 -61
-21 -1715 -364 -1752 -364 -103 0 -209 64 -252 153 -11 23 -46 161 -76 307
-31 146 -63 275 -71 287 -18 28 -51 37 -87 24 -55 -21 -55 -35 8 -333 66 -320
91 -383 180 -467 81 -76 168 -114 275 -119 76 -3 123 5 460 77 206 44 654 139
995 211 l619 132 241 -78 c238 -78 241 -79 345 -79 97 0 110 2 173 32 79 38
163 114 200 180 14 27 174 502 356 1058 300 913 330 1012 320 1038 -21 51 -72
62 -113 25 -20 -19 -85 -206 -347 -1008 -177 -542 -332 -1006 -345 -1031 -29
-59 -93 -114 -156 -135 -93 -31 -129 -22 -738 178 -311 103 -745 245 -965 317
-456 150 -472 158 -524 262 -59 117 -90 4 460 1683 271 826 500 1517 510 1536
21 43 82 102 129 126 19 9 66 19 105 22 70 4 76 2 1033 -312 529 -174 980
-325 1001 -335 92 -47 159 -169 149 -270 -3 -25 -60 -213 -126 -418 -67 -204
-122 -380 -122 -390 0 -29 42 -63 76 -63 19 0 38 9 51 23 11 13 72 180 143
397 124 374 124 375 124 470 0 111 -20 174 -84 263 -68 94 -124 123 -432 225
-316 105 -1403 461 -1590 521 -150 48 -243 54 -340 21z m-985 -1879 c37 -41
67 -77 67 -80 0 -6 -202 -52 -207 -47 -5 4 62 205 68 203 3 -1 36 -35 72 -76z
m97 -242 c0 -26 -214 -659 -220 -652 -4 4 -50 56 -103 114 l-96 106 63 189 63
189 139 31 c169 38 154 36 154 23z m-501 -200 l-32 -103 -73 80 c-40 43 -69
82 -66 86 7 6 194 47 200 42 2 -1 -11 -48 -29 -105z m171 -560 c0 -6 -201 -51
-206 -46 -3 3 37 131 61 195 3 8 32 -18 75 -65 38 -43 70 -81 70 -84z"/>
<path d="M2958 4410 c-9 -6 -28 -46 -43 -89 l-26 -79 -75 24 c-82 26 -116 24
-139 -9 -38 -55 -2 -105 98 -137 40 -13 67 -27 64 -34 -45 -122 -46 -168 -5
-199 29 -21 65 -18 92 8 8 9 25 47 37 85 13 39 26 70 29 70 4 0 33 -9 65 -20
32 -11 71 -20 87 -20 56 0 88 68 54 116 -8 12 -46 30 -90 44 -42 13 -75 29
-73 34 3 6 15 44 28 83 l23 73 -21 27 c-22 30 -74 41 -105 23z"/>
<path d="M744 4200 c-381 -82 -461 -103 -513 -130 -136 -73 -231 -229 -231
-382 0 -46 480 -2328 501 -2379 10 -25 45 -49 73 -49 27 0 66 41 66 69 0 16
-111 547 -246 1182 -202 947 -245 1163 -241 1206 11 103 92 207 186 237 25 8
240 56 476 106 275 58 439 98 455 109 37 27 40 82 4 110 -15 11 -38 20 -53 20
-14 -1 -229 -45 -477 -99z"/>
<path d="M625 3725 c-29 -28 -30 -47 -11 -130 8 -33 13 -62 10 -66 -2 -4 -33
-12 -69 -19 -82 -15 -115 -40 -115 -84 0 -39 35 -76 71 -76 13 1 51 7 84 15
68 16 70 15 80 -54 10 -70 30 -109 58 -116 40 -10 69 -2 89 26 19 26 19 29 4
105 -19 90 -21 87 71 104 47 9 68 19 83 38 27 33 25 68 -5 97 -28 29 -38 30
-120 10 -33 -8 -65 -15 -71 -15 -6 0 -17 32 -24 72 -19 110 -78 151 -135 93z"/>
<path d="M3395 3538 c-323 -24 -612 -247 -719 -554 -40 -113 -49 -183 -44
-322 4 -108 10 -141 37 -222 100 -299 351 -516 657 -570 45 -8 117 -11 190 -8
99 4 135 11 214 37 52 18 105 42 117 53 33 31 47 81 33 122 -16 51 -47 72
-139 95 -235 58 -371 240 -359 479 4 79 9 100 41 164 67 137 194 231 346 259
61 10 83 10 155 -4 123 -25 142 -23 182 17 28 28 34 42 34 75 0 56 -18 88 -88
152 -185 172 -400 246 -657 227z m249 -168 c84 -21 193 -74 247 -120 l34 -29
-56 6 c-68 7 -198 -18 -276 -52 -223 -99 -363 -312 -363 -552 0 -110 14 -172
62 -273 55 -116 158 -219 275 -277 99 -50 94 -54 -67 -60 -139 -6 -219 10
-335 67 -142 69 -246 173 -315 315 -51 103 -70 187 -70 306 0 317 208 589 514
669 98 26 249 26 350 0z"/>
<path d="M3603 1495 c-12 -9 -31 -43 -43 -82 -13 -38 -26 -71 -29 -76 -4 -4
-34 2 -66 13 -104 36 -158 18 -158 -50 0 -43 28 -68 105 -90 39 -12 68 -26 68
-34 0 -7 -9 -39 -20 -71 -11 -32 -20 -68 -20 -80 0 -31 40 -65 77 -65 39 0 58
22 83 96 11 32 22 64 25 71 3 9 25 5 80 -14 85 -28 110 -25 140 20 35 53 -8
104 -107 128 -27 6 -52 17 -54 23 -2 6 5 38 16 70 26 77 25 102 -5 131 -27 28
-61 32 -92 10z"/>
</g>
</svg>
